PathFileType	4	(X/Y/Z)	/Users/itak/Documents/Research/Walk-IL/dataset/trc/00120_00007.trc
DataRate	CameraRate	NumFrames	NumMarkers	Units	OrigDataRate	OrigDataStartFrame	OrigNumFrames
100.000000	100.000000	4	53	mm	100.000000	542	723
Frame#	Time	RPSI			LPSI			L3			STRN			T10			C7			CLAV			RBAK			LBAK			LSHO			LUPA			LAEL			LAOL			LWTS			LWPS			LFRA			LIFD			LHPS			LHTS			RSHO			RUPA			RAEL			RAOL			RWTS			RWPS			RFRA			RIFD			RHTS			RHPS			RBHD			LFHD			RFHD			LBHD			LHIP			RHIP			RASI			LASI			LKNE			LTHI			LANK			LTIP			LTOE			LMT1			LMT5			LHEE			RKNE			RTHI			RANK			RTIP			RTOE			RMT1			RMT5			RHEE			
		X1	Y1	Z1	X2	Y2	Z2	X3	Y3	Z3	X4	Y4	Z4	X5	Y5	Z5	X6	Y6	Z6	X7	Y7	Z7	X8	Y8	Z8	X9	Y9	Z9	X10	Y10	Z10	X11	Y11	Z11	X12	Y12	Z12	X13	Y13	Z13	X14	Y14	Z14	X15	Y15	Z15	X16	Y16	Z16	X17	Y17	Z17	X18	Y18	Z18	X19	Y19	Z19	X20	Y20	Z20	X21	Y21	Z21	X22	Y22	Z22	X23	Y23	Z23	X24	Y24	Z24	X25	Y25	Z25	X26	Y26	Z26	X27	Y27	Z27	X28	Y28	Z28	X29	Y29	Z29	X30	Y30	Z30	X31	Y31	Z31	X32	Y32	Z32	X33	Y33	Z33	X34	Y34	Z34	X35	Y35	Z35	X36	Y36	Z36	X37	Y37	Z37	X38	Y38	Z38	X39	Y39	Z39	X40	Y40	Z40	X41	Y41	Z41	X42	Y42	Z42	X43	Y43	Z43	X44	Y44	Z44	X45	Y45	Z45	X46	Y46	Z46	X47	Y47	Z47	X48	Y48	Z48	X49	Y49	Z49	X50	Y50	Z50	X51	Y51	Z51	X52	Y52	Z52	X53	Y53	Z53	

543	5.42	-682.7948608398438	1094.605590820312	191.9957885742188	-557.1402587890625	1099.795043945312	141.2179107666016	-620.1819458007812	1131.916137695312	158.5465850830078	-544.5454711914062	1337.076049804688	358.0700378417969	-631.6800537109375	1282.393676757812	119.492561340332	-604.2587280273438	1574.678833007812	141.9905700683594	-554.8876953125	1470.925659179688	319.7057800292969	-705.53271484375	1390.343872070312	124.4490509033203	-511.1585388183594	1552.612915039062	102.3808364868164	-420.0896606445312	1540.515625	162.8350067138672	-358.5337524414062	1408.804565429688	128.0003051757812	-322.931884765625	1192.414184570312	157.7012023925781	-394.6422424316406	1167.227172851562	110.9198226928711	-328.1788635253906	994.1840209960938	349.5086975097656	-321.0008239746094	936.2902221679688	281.4601745605469	-310.2323303222656	1087.411254882812	207.8104400634766	-337.4112854003906	824.9345092773438	444.2284545898438	-310.0125122070312	879.5546875	337.7064208984375	-309.653564453125	917.89306640625	396.461669921875	-758.570556640625	1561.039794921875	253.5198211669922	-825.29541015625	1488.522338867188	258.2684326171875	-862.6566162109375	1197.0390625	256.4403686523438	-772.7044067382812	1190.59765625	221.7881317138672	-822.7276000976562	951.7000732421875	392.2487182617188	-873.4596557617188	937.69189453125	326.7543334960938	-873.58984375	1124.562133789062	284.3989562988281	-806.840576171875	756.6983642578125	406.3802795410156	-825.7546997070312	842.8418579101562	420.9698181152344	-871.4301147460938	837.4494018554688	363.5039672851562	-644.6046752929688	1770.057495117188	235.6649627685547	-441.603515625	1784.3056640625	318.2030639648438	-551.5584106445312	1807.876220703125	382.818359375	-534.0332641601562	1750.841552734375	162.6339111328125	-419.4601440429688	1011.780456542969	187.0177612304688	-740.6226806640625	1009.397827148438	362.5525512695312	-661.0760498046875	1080.449584960938	411.1665344238281	-418.3895263671875	1077.954345703125	303.0833740234375	-513.6383056640625	508.4577331542969	232.0556182861328	-466.0478515625	653.3519897460938	204.2195739746094	-613.46630859375	42.14316558837891	47.39395141601562	-541.1661987304688	271.9747009277344	102.5540008544922	-673.1299438476562	32.27101135253906	277.0916748046875	-706.3236694335938	36.93397521972656	193.28173828125	-592.6996459960938	42.4774169921875	173.0195007324219	-673.1785278320312	48.62589263916016	-24.07061576843262	-668.9160766601562	561.74853515625	535.5331420898438	-717.9566650390625	820.2284545898438	444.828125	-662.5986938476562	44.19057083129883	640.3956298828125	-683.0614013671875	431.3839721679688	569.5968627929688	-531.8212280273438	146.3020935058594	801.0230712890625	-512.9336547851562	114.9823913574219	738.734619140625	-629.980224609375	90.97118377685547	759.2427368164062	-644.31884765625	30.45414543151855	568.0066528320312	
544	5.43	-682.1080932617188	1093.08203125	202.9718475341797	-557.3311767578125	1098.541137695312	150.5362091064453	-620.09130859375	1130.429077148438	168.7971496582031	-542.11865234375	1335.430419921875	367.0937805175781	-632.3186645507812	1280.497314453125	129.5547485351562	-604.617919921875	1572.823364257812	151.2642517089844	-553.0442504882812	1469.253784179688	328.5971069335938	-706.0029296875	1388.430908203125	135.3378448486328	-512.0885009765625	1550.7275390625	110.5291595458984	-420.2249450683594	1538.5732421875	169.7319030761719	-359.2432250976562	1406.8154296875	133.8847808837891	-323.7815856933594	1190.243041992188	162.6594696044922	-396.1994934082031	1165.375	116.7940826416016	-326.9697570800781	991.2542724609375	353.7860412597656	-320.864501953125	933.6240844726562	285.4087524414062	-310.70654296875	1084.986450195312	212.1947937011719	-335.5999145507812	821.61572265625	447.9225463867188	-309.3818664550781	876.5830078125	341.2596130371094	-308.1068725585938	914.6834106445312	400.1557312011719	-757.500732421875	1559.2119140625	264.7534790039062	-824.238037109375	1486.873901367188	270.413818359375	-862.1905517578125	1195.489135742188	269.6704406738281	-772.3624877929688	1188.744506835938	234.2344665527344	-821.2145385742188	950.7078247070312	406.1009826660156	-872.4563598632812	936.45556640625	341.2687072753906	-872.922119140625	1123.129760742188	298.0484008789062	-805.3338623046875	755.9047241210938	421.3423767089844	-824.0858764648438	842.1123657226562	435.5885925292969	-870.2328491210938	836.4423217773438	378.6195983886719	-644.1056518554688	1768.34521484375	244.7957458496094	-440.3460083007812	1783.197021484375	324.9854125976562	-549.662109375	1806.733520507812	390.7125549316406	-534.3947143554688	1749.174926757812	170.4900817871094	-418.9035034179688	1010.6005859375	194.2945404052734	-738.1958618164062	1007.557434082031	373.9325866699219	-657.9352416992188	1078.560791015625	421.6147155761719	-416.5351867675781	1076.35498046875	310.6201171875	-512.2866821289062	507.0264587402344	237.1173706054688	-465.1664733886719	652.2422485351562	209.8055419921875	-613.9904174804688	42.82891082763672	47.39402770996094	-541.0513916015625	271.9566040039062	104.8556747436523	-672.971923828125	32.1753044128418	277.2469482421875	-706.2595825195312	37.04473114013672	193.5333404541016	-592.6630859375	42.44962692260742	172.9368286132812	-674.1160888671875	50.14631652832031	-23.83488845825195	-666.4918212890625	559.3851318359375	544.0344848632812	-715.7489013671875	817.7775268554688	454.317626953125	-650.1670532226562	45.38075637817383	663.4666748046875	-678.92578125	430.435546875	581.1000366210938	-516.4196166992188	154.0778656005859	817.4795532226562	-499.037109375	121.4810562133789	755.4171142578125	-614.763427734375	95.72203826904297	780.11669921875	-633.6744384765625	30.29207420349121	590.7073974609375	
545	5.44	-681.248291015625	1091.582397460938	214.0219268798828	-557.4251708984375	1097.334594726562	159.9770660400391	-619.8511962890625	1129.0400390625	179.1685638427734	-539.6981201171875	1333.828491210938	376.2339477539062	-632.8443603515625	1278.629516601562	139.7252655029297	-604.9078369140625	1571.030395507812	160.6521453857422	-551.1804809570312	1467.627319335938	337.6014709472656	-706.336669921875	1386.566528320312	146.3076019287109	-512.9251098632812	1548.877197265625	118.824592590332	-420.3106994628906	1536.676025390625	176.7875061035156	-359.8961181640625	1404.86767578125	139.9217834472656	-324.6331176757812	1188.115234375	167.7220001220703	-397.7463684082031	1163.59912109375	122.78125	-325.7130432128906	988.1068725585938	357.8705139160156	-320.7127075195312	930.845947265625	289.1058044433594	-311.1652526855469	1082.546997070312	216.5438232421875	-333.7002868652344	817.9610595703125	451.1910400390625	-308.71044921875	873.4254150390625	344.4637145996094	-306.4827575683594	911.2050170898438	403.5385437011719	-756.35986328125	1557.404541015625	276.0198974609375	-823.0353393554688	1485.244873046875	282.5987854003906	-861.5306396484375	1193.96484375	282.9535217285156	-771.7611694335938	1186.931396484375	246.8246917724609	-819.5635375976562	949.7345581054688	419.90625	-871.2796020507812	935.2405395507812	355.7593383789062	-872.1007690429688	1121.72314453125	311.719482421875	-803.69091796875	755.1099243164062	436.2819213867188	-822.3079833984375	841.3841552734375	450.1605834960938	-868.88232421875	835.455078125	393.6907348632812	-643.5923461914062	1766.688110351562	253.9706115722656	-439.0614013671875	1782.144287109375	331.8092651367188	-547.7338256835938	1805.656616210938	398.6493835449219	-534.7144165039062	1747.545043945312	178.4190063476562	-418.2277526855469	1009.513427734375	201.7373657226562	-735.7588500976562	1005.711853027344	385.2313537597656	-654.8568725585938	1076.7109375	432.106201171875	-414.7073669433594	1074.802001953125	318.3609008789062	-510.8558349609375	505.6613159179688	242.1890411376953	-464.2086791992188	651.2052612304688	215.4501190185547	-614.3883666992188	43.61370086669922	47.44597625732422	-540.8255004882812	272.0488891601562	107.1985168457031	-672.8432006835938	32.09472274780273	277.3749389648438	-706.1514282226562	37.20120620727539	193.7625579833984	-592.6035766601562	42.41544342041016	172.8925476074219	-674.8628540039062	51.82185745239258	-23.5711669921875	-663.8217163085938	557.1791381835938	552.7467651367188	-713.5464477539062	815.3522338867188	463.9682922363281	-638.3142700195312	46.61313629150391	684.7063598632812	-674.7579345703125	429.5514526367188	592.3132934570312	-501.8331909179688	161.1606292724609	832.3362426757812	-485.92236328125	127.4489288330078	770.5216674804688	-600.3049926757812	100.1997451782227	799.1793212890625	-623.5595703125	30.29342460632324	611.6201171875	
546	5.45	-680.2263793945312	1090.126098632812	225.1350708007812	-557.4155883789062	1096.1865234375	169.5359802246094	-619.4583129882812	1127.767211914062	189.6539459228516	-537.2945556640625	1332.298217773438	385.4914855957031	-633.2571411132812	1276.819458007812	150.002197265625	-605.1193237304688	1569.314819335938	170.1573638916016	-549.2947998046875	1466.070190429688	346.7213439941406	-706.564697265625	1384.777954101562	157.3593444824219	-513.6648559570312	1547.0849609375	127.2731628417969	-420.333740234375	1534.855834960938	184.0177459716797	-360.4862060546875	1402.989624023438	146.1270141601562	-325.4733581542969	1186.065307617188	172.9082489013672	-399.2757873535156	1161.9306640625	128.9019317626953	-324.4108581542969	984.7589111328125	361.7603454589844	-320.5545349121094	927.9799194335938	292.5464172363281	-311.6017761230469	1080.123168945312	220.8705902099609	-331.7145080566406	813.9812622070312	454.0078735351562	-308.0033264160156	870.1054077148438	347.3050231933594	-304.7890319824219	907.4705810546875	406.6006774902344	-755.1526489257812	1555.663330078125	287.3262939453125	-821.7033081054688	1483.675415039062	294.8285217285156	-860.6781616210938	1192.49609375	296.2868041992188	-770.9229736328125	1185.193237304688	259.5407104492188	-817.741455078125	948.806396484375	433.6642150878906	-869.9249877929688	934.0709838867188	370.2129211425781	-871.1126098632812	1120.3701171875	325.416259765625	-801.909423828125	754.3275756835938	451.1571655273438	-820.4129638671875	840.6672973632812	464.6624145507812	-867.3671264648438	834.5055541992188	408.6917114257812	-643.0695190429688	1765.108764648438	263.1967468261719	-437.7511291503906	1781.163208007812	338.6797485351562	-545.7752075195312	1804.667602539062	406.6340942382812	-534.991455078125	1745.967163085938	186.4270629882812	-417.4283447265625	1008.531372070312	209.3383178710938	-733.3333129882812	1003.887145996094	396.4457702636719	-651.8516845703125	1074.9287109375	442.6315612792969	-412.9205932617188	1073.30859375	326.2982177734375	-509.353759765625	504.3760681152344	247.3086853027344	-463.1829223632812	650.2505493164062	221.1905670166016	-614.6485595703125	44.50328063964844	47.55290603637695	-540.4724731445312	272.2594604492188	109.6112976074219	-672.7413940429688	32.02834320068359	277.4766540527344	-705.9956665039062	37.40927124023438	193.9691925048828	-592.510986328125	42.37137603759766	172.8942565917969	-675.40087890625	53.66768264770508	-23.2772216796875	-660.8554077148438	555.1835327148438	561.7543334960938	-711.31640625	813.0087280273438	473.8519287109375	-627.2395629882812	47.65787506103516	703.9089965820312	-670.50244140625	428.6846313476562	603.3101806640625	-488.193359375	167.1676025390625	845.542236328125	-473.7060546875	132.5263824462891	783.96826171875	-586.7927856445312	104.0767135620117	816.290771484375	-614.1704711914062	30.27690887451172	630.5222778320312	
